<?xml version="1.0" encoding="UTF-8"?>
<svg xmlns="http://www.w3.org/2000/svg" xmlns:xlink="http://www.w3.org/1999/xlink" width="80px" height="80px"
  viewBox="0 0 80 80" version="1.1">
  <g id="surface1">
    <path
      style="fill:none;stroke-width:1;stroke-linecap:butt;stroke-linejoin:miter;stroke:rgb(100%,100%,100%);stroke-opacity:1;stroke-miterlimit:4;"
      d="M 6.000002 0.503906 L 114.000043 0.503906 C 117.035201 0.503906 119.496139 2.964845 119.496139 6.000002 L 119.496139 114.000043 C 119.496139 117.035201 117.035201 119.496139 114.000043 119.496139 L 6.000002 119.496139 C 2.964845 119.496139 0.503906 117.035201 0.503906 114.000043 L 0.503906 6.000002 C 0.503906 2.964845 2.964845 0.503906 6.000002 0.503906 Z M 6.000002 0.503906 "
      transform="matrix(0.666666,0,0,0.666666,0,0)" />
    <path style=" stroke:none;fill-rule:evenodd;fill:rgb(100%,38.82353%,22.352941%);fill-opacity:1;"
      d="M 22.082031 28.183594 C 22.082031 31.886719 24.820312 34.941406 28.355469 35.367188 C 28.699219 35.40625 28.972656 35.691406 28.972656 36.039062 L 28.972656 44.550781 C 28.972656 44.90625 29.257812 45.195312 29.609375 45.195312 L 32.179688 45.195312 C 32.527344 45.195312 32.816406 45.484375 32.816406 45.839844 L 32.816406 48.75 C 32.816406 49.316406 33.476562 49.609375 33.882812 49.226562 L 37.976562 45.367188 C 38.09375 45.257812 38.246094 45.195312 38.410156 45.195312 L 51.308594 45.195312 C 51.660156 45.195312 51.945312 44.90625 51.945312 44.550781 L 51.945312 35.871094 C 51.945312 35.554688 52.175781 35.289062 52.476562 35.214844 C 55.601562 34.445312 57.917969 31.589844 57.917969 28.183594 C 57.917969 24.191406 54.730469 20.953125 50.796875 20.953125 C 50.375 20.953125 49.960938 20.992188 49.558594 21.0625 C 49.253906 21.117188 48.945312 20.96875 48.804688 20.691406 C 47.148438 17.46875 43.828125 15.269531 40 15.269531 C 36.171875 15.269531 32.851562 17.46875 31.195312 20.691406 C 31.054688 20.96875 30.742188 21.117188 30.441406 21.0625 C 30.039062 20.992188 29.625 20.953125 29.203125 20.953125 C 25.269531 20.953125 22.082031 24.191406 22.082031 28.183594 Z M 40.851562 36.601562 C 40.851562 36.128906 40.453125 35.746094 39.957031 35.746094 L 33.21875 35.746094 C 32.722656 35.746094 32.320312 36.128906 32.320312 36.601562 C 32.320312 37.070312 32.722656 37.453125 33.21875 37.453125 L 39.957031 37.453125 C 40.453125 37.453125 40.851562 37.070312 40.851562 36.601562 Z M 46.816406 39.160156 C 47.292969 39.160156 47.679688 39.539062 47.679688 40.011719 C 47.679688 40.484375 47.292969 40.867188 46.816406 40.867188 L 33.183594 40.867188 C 32.707031 40.867188 32.320312 40.484375 32.320312 40.011719 C 32.320312 39.539062 32.707031 39.160156 33.183594 39.160156 Z M 46.816406 39.160156 " />
    <path style=" stroke:none;fill-rule:nonzero;fill:rgb(100%,100%,100%);fill-opacity:1;"
      d="M 11.789062 66.066406 L 8.234375 66.066406 C 8.367188 66.066406 8.476562 65.960938 8.554688 65.746094 L 8.5625 65.738281 C 8.691406 65.394531 8.761719 64.949219 8.78125 64.410156 C 8.785156 64.203125 8.789062 61.117188 8.789062 55.136719 C 8.789062 54.539062 8.710938 54.039062 8.5625 53.632812 L 8.554688 53.621094 C 8.476562 53.417969 8.367188 53.316406 8.234375 53.316406 L 18.648438 53.316406 L 18.648438 54.488281 C 18.640625 54.363281 18.554688 54.261719 18.390625 54.191406 L 18.382812 54.183594 C 18.042969 54.039062 17.539062 53.960938 16.859375 53.941406 L 11.367188 53.941406 C 11.273438 54.367188 11.226562 54.796875 11.226562 55.226562 L 11.226562 59.238281 L 15.101562 59.230469 C 15.238281 59.226562 15.398438 59.214844 15.585938 59.195312 C 15.972656 59.15625 16.273438 59.089844 16.492188 58.992188 L 16.5 58.988281 C 16.664062 58.914062 16.75 58.816406 16.757812 58.691406 L 16.757812 60.410156 C 16.75 60.285156 16.664062 60.183594 16.5 60.113281 L 16.492188 60.105469 C 16.386719 60.058594 16.273438 60.023438 16.132812 59.992188 C 15.792969 59.914062 15.382812 59.871094 14.90625 59.855469 L 11.226562 59.863281 L 11.226562 64.195312 C 11.253906 65.019531 11.351562 65.578125 11.523438 65.871094 C 11.59375 66 11.679688 66.066406 11.789062 66.066406 Z M 22.492188 66.097656 C 21.710938 66.097656 20.953125 65.898438 20.226562 65.492188 C 19.128906 64.851562 18.398438 63.917969 18.046875 62.695312 C 17.933594 62.273438 17.882812 61.851562 17.882812 61.441406 C 17.882812 60.660156 18.082031 59.902344 18.484375 59.175781 C 19.121094 58.074219 20.054688 57.351562 21.28125 56.996094 C 21.683594 56.886719 22.101562 56.832031 22.53125 56.832031 C 23.320312 56.832031 24.074219 57.03125 24.804688 57.433594 C 25.902344 58.078125 26.628906 59.007812 26.976562 60.230469 C 27.089844 60.65625 27.148438 61.074219 27.148438 61.488281 C 27.148438 62.269531 26.945312 63.023438 26.539062 63.753906 C 25.898438 64.851562 24.964844 65.578125 23.742188 65.929688 C 23.320312 66.039062 22.902344 66.097656 22.492188 66.097656 Z M 23.25 65.371094 C 23.394531 65.371094 23.535156 65.351562 23.671875 65.300781 C 24.039062 65.15625 24.320312 64.867188 24.53125 64.433594 C 24.757812 63.957031 24.875 63.367188 24.875 62.675781 C 24.875 62.105469 24.789062 61.507812 24.617188 60.871094 C 24.332031 59.875 23.917969 59.070312 23.382812 58.460938 C 22.851562 57.851562 22.304688 57.539062 21.742188 57.535156 C 21.566406 57.566406 21.371094 57.617188 21.15625 57.695312 C 20.675781 57.992188 20.363281 58.539062 20.21875 59.335938 C 20.167969 59.617188 20.148438 59.90625 20.148438 60.210938 C 20.148438 60.773438 20.230469 61.382812 20.398438 62.035156 C 20.597656 62.734375 20.859375 63.347656 21.195312 63.867188 C 21.527344 64.386719 21.898438 64.78125 22.296875 65.050781 C 22.617188 65.265625 22.933594 65.371094 23.25 65.371094 Z M 32.554688 66.097656 C 31.773438 66.097656 31.015625 65.898438 30.289062 65.492188 C 29.191406 64.851562 28.460938 63.917969 28.109375 62.695312 C 27.996094 62.273438 27.945312 61.851562 27.945312 61.441406 C 27.945312 60.660156 28.144531 59.902344 28.546875 59.175781 C 29.183594 58.074219 30.117188 57.351562 31.34375 56.996094 C 31.746094 56.886719 32.164062 56.832031 32.59375 56.832031 C 33.382812 56.832031 34.136719 57.03125 34.867188 57.433594 C 35.964844 58.078125 36.691406 59.007812 37.039062 60.230469 C 37.152344 60.65625 37.210938 61.074219 37.210938 61.488281 C 37.210938 62.269531 37.007812 63.023438 36.601562 63.753906 C 35.960938 64.851562 35.027344 65.578125 33.804688 65.929688 C 33.382812 66.039062 32.964844 66.097656 32.554688 66.097656 Z M 33.3125 65.371094 C 33.457031 65.371094 33.597656 65.351562 33.734375 65.300781 C 34.101562 65.15625 34.382812 64.867188 34.59375 64.433594 C 34.820312 63.957031 34.9375 63.367188 34.9375 62.675781 C 34.9375 62.105469 34.851562 61.507812 34.679688 60.871094 C 34.394531 59.875 33.980469 59.070312 33.445312 58.460938 C 32.914062 57.851562 32.367188 57.539062 31.804688 57.535156 C 31.628906 57.566406 31.433594 57.617188 31.21875 57.695312 C 30.738281 57.992188 30.425781 58.539062 30.28125 59.335938 C 30.230469 59.617188 30.210938 59.90625 30.210938 60.210938 C 30.210938 60.773438 30.292969 61.382812 30.460938 62.035156 C 30.660156 62.734375 30.921875 63.347656 31.257812 63.867188 C 31.589844 64.386719 31.960938 64.78125 32.359375 65.050781 C 32.679688 65.265625 32.996094 65.371094 33.3125 65.371094 Z M 49.164062 66.066406 C 49.167969 66.066406 49.175781 66.066406 49.179688 66.066406 C 48.664062 66.066406 48.078125 66.066406 47.429688 66.066406 C 46.789062 66.066406 46.183594 66.066406 45.625 66.066406 C 45.773438 66.046875 45.882812 65.941406 45.960938 65.742188 C 46.035156 65.539062 46.085938 65.320312 46.117188 65.082031 C 46.148438 64.839844 46.164062 64.648438 46.171875 64.507812 C 46.171875 64.492188 46.171875 64.476562 46.171875 64.460938 C 45.601562 65.097656 44.960938 65.539062 44.25 65.785156 C 43.542969 66.03125 42.835938 66.105469 42.117188 66.007812 C 41.398438 65.90625 40.742188 65.660156 40.132812 65.261719 C 39.53125 64.867188 39.042969 64.347656 38.671875 63.699219 C 38.300781 63.054688 38.105469 62.296875 38.085938 61.441406 C 38.082031 60.609375 38.285156 59.847656 38.695312 59.148438 C 39.117188 58.449219 39.667969 57.890625 40.359375 57.472656 C 41.054688 57.046875 41.816406 56.835938 42.648438 56.835938 C 43.136719 57.011719 43.691406 57.214844 44.296875 57.441406 C 44.988281 57.695312 45.617188 57.921875 46.179688 58.121094 L 46.179688 56.417969 C 46.179688 56.160156 46.175781 55.929688 46.164062 55.738281 C 46.148438 55.542969 46.128906 55.375 46.101562 55.238281 C 46.074219 55.101562 46.046875 54.984375 46.015625 54.894531 C 45.984375 54.800781 45.949219 54.726562 45.914062 54.675781 C 45.882812 54.617188 45.851562 54.578125 45.820312 54.554688 C 45.789062 54.527344 45.757812 54.507812 45.726562 54.503906 C 45.707031 54.492188 45.683594 54.492188 45.664062 54.492188 C 45.648438 54.492188 45.636719 54.492188 45.632812 54.496094 C 46.632812 54.109375 47.628906 53.714844 48.625 53.316406 C 48.625 53.386719 48.625 53.871094 48.625 54.761719 C 48.625 55.652344 48.625 56.710938 48.625 57.945312 C 48.625 59.429688 48.625 60.789062 48.625 62.023438 C 48.625 63.257812 48.625 63.964844 48.625 64.152344 C 48.625 64.242188 48.632812 64.398438 48.648438 64.632812 C 48.65625 64.867188 48.691406 65.117188 48.742188 65.371094 C 48.769531 65.507812 48.8125 65.648438 48.875 65.800781 C 48.9375 65.949219 49.035156 66.039062 49.164062 66.066406 Z M 43.914062 65.210938 C 44.90625 64.882812 45.664062 64.257812 46.179688 63.339844 L 46.179688 58.757812 C 45.921875 58.664062 45.492188 58.5 44.898438 58.277344 C 44.460938 58.117188 44.035156 57.960938 43.625 57.804688 C 43.21875 57.652344 42.929688 57.542969 42.75 57.476562 C 41.902344 58 41.292969 58.695312 40.929688 59.554688 C 40.558594 60.414062 40.449219 61.308594 40.601562 62.230469 C 40.753906 63.152344 41.179688 63.964844 41.882812 64.675781 C 42.164062 64.960938 42.476562 65.199219 42.8125 65.398438 C 43.191406 65.386719 43.558594 65.324219 43.914062 65.210938 Z M 53.203125 66.082031 L 49.648438 66.082031 C 49.777344 66.082031 49.886719 65.972656 49.976562 65.753906 C 50.132812 65.335938 50.210938 64.808594 50.210938 64.179688 L 50.210938 59.914062 C 50.199219 59.457031 50.179688 59.089844 50.132812 58.820312 C 50.066406 58.382812 49.957031 58.121094 49.804688 58.035156 C 49.761719 58.011719 49.730469 58.003906 49.703125 58.003906 L 49.664062 58.011719 L 52.648438 56.832031 L 52.648438 64.210938 C 52.648438 64.320312 52.660156 64.496094 52.679688 64.730469 C 52.714844 65.265625 52.804688 65.652344 52.9375 65.886719 C 53.007812 66.015625 53.101562 66.082031 53.203125 66.082031 Z M 51.429688 55.988281 C 51.117188 55.988281 50.851562 55.882812 50.632812 55.664062 C 50.414062 55.445312 50.304688 55.179688 50.304688 54.871094 C 50.304688 54.5625 50.414062 54.300781 50.632812 54.082031 C 50.851562 53.863281 51.117188 53.753906 51.429688 53.753906 C 51.738281 53.753906 52 53.863281 52.21875 54.082031 C 52.4375 54.300781 52.546875 54.5625 52.546875 54.871094 C 52.546875 55.179688 52.4375 55.445312 52.21875 55.664062 C 52 55.882812 51.738281 55.988281 51.429688 55.988281 Z M 62.226562 54.613281 L 60.710938 55.566406 C 60.710938 55.566406 60.710938 55.511719 60.710938 55.402344 C 60.710938 55.292969 60.695312 55.160156 60.65625 55.003906 C 60.621094 54.84375 60.554688 54.683594 60.453125 54.523438 C 60.351562 54.367188 60.207031 54.230469 60.007812 54.121094 C 59.816406 54.015625 59.558594 53.960938 59.242188 53.949219 C 59.210938 53.949219 59.179688 53.949219 59.148438 53.949219 C 58.738281 53.972656 58.414062 54.109375 58.179688 54.363281 C 57.953125 54.617188 57.789062 54.957031 57.6875 55.382812 C 57.589844 55.804688 57.53125 56.289062 57.507812 56.824219 L 60.164062 56.824219 L 60.164062 57.449219 L 57.492188 57.449219 C 57.492188 57.527344 57.492188 57.902344 57.492188 58.574219 C 57.492188 59.25 57.492188 60.023438 57.492188 60.886719 C 57.492188 61.753906 57.492188 62.523438 57.492188 63.191406 C 57.492188 63.859375 57.492188 64.195312 57.492188 64.195312 C 57.492188 64.304688 57.496094 64.480469 57.515625 64.722656 C 57.535156 64.960938 57.570312 65.195312 57.617188 65.441406 C 57.664062 65.617188 57.714844 65.757812 57.78125 65.878906 C 57.847656 65.992188 57.929688 66.054688 58.03125 66.066406 C 58.035156 66.066406 58.039062 66.066406 58.039062 66.066406 L 54.492188 66.066406 C 54.5625 66.066406 54.625 66.039062 54.679688 65.980469 C 54.730469 65.921875 54.777344 65.84375 54.820312 65.746094 C 54.820312 65.742188 54.820312 65.742188 54.820312 65.738281 C 54.898438 65.542969 54.945312 65.320312 54.976562 65.074219 C 55.007812 64.824219 55.027344 64.605469 55.039062 64.414062 C 55.042969 64.21875 55.046875 64.121094 55.046875 64.121094 L 55.046875 57.628906 C 55.046875 57.570312 55.050781 57.507812 55.054688 57.449219 L 53.671875 57.449219 L 53.671875 56.824219 L 55.117188 56.824219 C 55.238281 56.214844 55.460938 55.664062 55.796875 55.175781 C 56.132812 54.679688 56.554688 54.277344 57.054688 53.960938 C 57.101562 53.929688 57.171875 53.890625 57.265625 53.839844 C 57.363281 53.789062 57.457031 53.742188 57.539062 53.699219 C 57.632812 53.65625 57.695312 53.628906 57.726562 53.617188 C 58.199219 53.421875 58.707031 53.324219 59.242188 53.324219 C 59.820312 53.324219 60.367188 53.441406 60.882812 53.667969 C 61.390625 53.898438 61.835938 54.210938 62.226562 54.613281 Z M 71.78125 56.847656 C 71.601562 56.847656 71.429688 56.90625 71.257812 57.023438 C 71.085938 57.136719 70.921875 57.285156 70.773438 57.460938 C 70.621094 57.632812 70.488281 57.8125 70.367188 57.996094 C 70.246094 58.179688 70.148438 58.339844 70.070312 58.480469 C 69.992188 58.625 69.945312 58.71875 69.921875 58.769531 C 69.921875 58.769531 69.765625 59.097656 69.453125 59.753906 C 69.140625 60.410156 68.757812 61.210938 68.296875 62.164062 C 67.839844 63.117188 67.382812 64.066406 66.914062 65.011719 C 66.445312 65.960938 66.050781 66.746094 65.71875 67.378906 C 64.964844 68.804688 64.308594 69.929688 63.75 70.753906 C 63.417969 71.234375 63.140625 71.597656 62.914062 71.832031 C 62.679688 72.070312 62.492188 72.226562 62.335938 72.300781 C 62.191406 72.371094 62.0625 72.410156 61.960938 72.410156 L 61.960938 69.757812 C 61.960938 69.757812 62.035156 69.765625 62.179688 69.785156 C 62.335938 69.800781 62.523438 69.796875 62.75 69.773438 C 62.976562 69.753906 63.210938 69.683594 63.453125 69.570312 C 63.695312 69.457031 63.910156 69.273438 64.101562 69.019531 C 64.222656 68.808594 64.394531 68.496094 64.617188 68.082031 C 64.847656 67.664062 65.0625 67.257812 65.273438 66.867188 C 65.476562 66.476562 65.617188 66.21875 65.679688 66.089844 L 65.664062 66.089844 L 65.671875 66.085938 L 62.046875 58.632812 C 61.988281 58.507812 61.898438 58.351562 61.78125 58.152344 C 61.664062 57.960938 61.527344 57.761719 61.367188 57.566406 C 61.210938 57.367188 61.035156 57.195312 60.84375 57.054688 C 60.652344 56.914062 60.457031 56.847656 60.25 56.847656 L 64.828125 56.847656 C 64.652344 56.847656 64.539062 56.898438 64.476562 57.007812 C 64.414062 57.117188 64.390625 57.253906 64.398438 57.417969 C 64.414062 57.585938 64.445312 57.753906 64.5 57.929688 C 64.554688 58.101562 64.613281 58.261719 64.671875 58.410156 C 64.730469 58.554688 64.777344 58.664062 64.8125 58.730469 L 67.023438 63.292969 L 69.304688 58.605469 C 69.347656 58.507812 69.398438 58.382812 69.445312 58.238281 C 69.5 58.089844 69.546875 57.9375 69.585938 57.777344 C 69.621094 57.617188 69.640625 57.464844 69.640625 57.324219 C 69.640625 57.183594 69.609375 57.070312 69.546875 56.980469 C 69.488281 56.890625 69.382812 56.847656 69.242188 56.847656 Z M 71.78125 56.847656 " />
  </g>
</svg>